<?xml version="1.0" encoding="UTF-8"?>
<!DOCTYPE svg PUBLIC "-//W3C//DTD SVG 1.1//EN" "http://www.w3.org/Graphics/SVG/1.1/DTD/svg11.dtd">
<!-- Creator: CorelDRAW 2026 -->
<svg xmlns="http://www.w3.org/2000/svg" xml:space="preserve" width="15mm" height="10.289mm" version="1.1" style="shape-rendering:geometricPrecision; text-rendering:geometricPrecision; image-rendering:optimizeQuality; fill-rule:evenodd; clip-rule:evenodd"
viewBox="0 0 1500 1028.9"
 xmlns:xlink="http://www.w3.org/1999/xlink"
 xmlns:xodm="http://www.corel.com/coreldraw/odm/2003">
 <defs>
  <style type="text/css">
   <![CDATA[
    .fil0 {fill:black;fill-rule:nonzero}
   ]]>
  </style>
 </defs>
 <g id="Слой_x0020_1">
  <metadata id="CorelCorpID_0Corel-Layer"/>
  <path class="fil0" d="M1351 10.21l136.96 0 0 610.21 -136.96 0 0 -348.37 -154.92 254.22 -15.42 0 -154.91 -254.22 0 348.37 -136.96 0 0 -610.21 136.96 0 162.61 277.25 162.64 -277.25zm-1106.48 622.2c-59.91,0 -110.41,-12.99 -151.5,-38.95 -41.09,-25.97 -70.48,-62.35 -88.16,-109.14l118.12 -68.47c23.96,55.35 65.9,83.03 125.83,83.03 54.2,0 81.31,-16.27 81.31,-48.8 0,-18.26 -8.85,-31.95 -26.53,-41.08 -18.27,-10.85 -50.79,-22.54 -97.58,-35.1 -47.94,-13.12 -88.45,-31.95 -121.55,-56.49 -36.52,-29.67 -54.78,-71.62 -54.78,-125.82 0,-55.35 19.68,-99.59 59.06,-132.69 39.95,-33.08 87.31,-49.63 142.1,-49.63 49.07,0 92.43,11.55 130.09,34.66 35.62,21.85 62.54,53.87 85.41,93.48 3.13,5.42 2.54,7.73 -2.16,10.49l-105.06 61.47c-3.74,2.18 -5.8,0.47 -6.86,-1.63 -21.67,-43.34 -55.59,-64.95 -101.42,-64.95 -19.99,0 -35.68,4.29 -47.09,12.85 -11.41,8.55 -17.11,19.4 -17.11,32.52 0,14.26 6.84,27.1 20.54,38.52 14.83,11.41 43.93,23.39 87.31,35.95l55.63 17.97c14.26,4.57 30.81,12.27 49.65,23.11 20.54,10.27 35.95,21.41 46.22,33.39 27.39,29.67 41.08,66.76 41.08,111.27 0,56.5 -20.53,101.57 -61.62,135.24 -41.09,32.54 -94.73,48.8 -160.93,48.8zm-56.99 394.15c-52.52,0 -96.2,-17.4 -130.99,-52.19 -34.46,-34.79 -51.68,-78.29 -51.68,-130.48 0,-52.19 17.22,-95.52 51.68,-129.97 34.47,-35.13 78.13,-52.7 130.99,-52.7 31.44,0 60.56,7.27 87.32,21.84 26.76,14.54 47.84,34.36 63.23,59.46l-69.26 40.13c-7.69,-13.7 -18.65,-24.32 -32.86,-31.85 -14.22,-7.53 -30.36,-11.3 -48.43,-11.3 -31.45,0 -56.38,9.54 -74.78,28.62 -18.4,18.74 -27.59,43.99 -27.59,75.77 0,31.78 9.19,57.04 27.59,75.77 18.4,19.08 43.33,28.62 74.78,28.62 17.74,0 33.87,-3.85 48.43,-11.55 14.56,-7.69 25.51,-18.23 32.86,-31.6l68.38 39.62 94.01 -276.5 102.38 0 115.71 340.32 0 -340.32 140.52 0c33.45,0 61.89,11.7 85.3,35.13 23.44,23.41 35.14,51.85 35.14,85.31 0,21.06 -5.95,40.81 -17.82,59.21 -11.89,18.4 -27.52,32.63 -46.92,42.66l74.78 128.97 -86.33 0 -66.25 -115.42 -38.12 0 0 115.42 -76.58 0 -3.72 0 -84.1 0 -17.56 -55.21 -130.49 0 -17.56 55.21 -87.82 0 23.97 -70.48c-14.86,23.3 -34.99,41.87 -60.39,55.67 -26.76,14.57 -56.04,21.84 -87.82,21.84zm294.87 -266.48l-41.15 128.97 82.3 0 -41.15 -128.97zm307.42 -16.56l-60.22 0 0 90.33 60.22 0c11.03,0 20.48,-4.35 28.35,-13.05 7.86,-8.69 11.79,-19.39 11.79,-32.11 0,-12.72 -3.93,-23.43 -11.79,-32.12 -7.87,-8.7 -17.32,-13.05 -28.35,-13.05zm134.27 -75.27l140.51 0c48.19,0 88.66,16.88 121.45,50.68 32.8,33.79 49.19,75.45 49.19,124.96 0,49.85 -16.39,91.67 -49.19,125.47 -32.44,33.44 -72.93,50.17 -121.45,50.17l-140.51 0 0 -351.28zm80.3 274l60.21 0c27.79,0 50.19,-8.85 67.26,-26.6 17.39,-17.72 26.1,-41.65 26.1,-71.76 0,-30.12 -8.71,-53.86 -26.1,-71.26 -17.07,-18.07 -39.47,-27.1 -67.26,-27.1l-60.21 0 0 196.72zm352.57 84.31c-35.14,0 -64.74,-7.61 -88.83,-22.83 -24.09,-15.23 -41.3,-36.55 -51.69,-63.99l69.26 -40.15c14.05,32.46 38.64,48.69 73.76,48.69 31.8,0 47.68,-9.54 47.68,-28.62 0,-10.7 -5.18,-18.73 -15.54,-24.08 -10.72,-6.36 -29.79,-13.21 -57.22,-20.58 -28.1,-7.68 -51.86,-18.74 -71.26,-33.12 -21.41,-17.39 -32.12,-41.98 -32.12,-73.76 0,-32.46 11.55,-58.4 34.62,-77.79 23.42,-19.4 51.19,-29.11 83.32,-29.11 28.78,0 54.2,6.77 76.27,20.32 22.09,13.55 39.49,33.21 52.2,58.96l-67.75 39.66c-12.72,-27.11 -32.96,-40.66 -60.72,-40.66 -11.71,0 -20.92,2.52 -27.61,7.54 -6.69,5 -10.03,11.37 -10.03,19.06 0,8.37 4.01,15.9 12.05,22.59 8.69,6.68 25.75,13.71 51.18,21.06l32.61 10.55c8.38,2.67 18.07,7.19 29.12,13.55 12.04,6.03 21.08,12.55 27.09,19.58 16.06,17.39 24.1,39.14 24.1,65.24 0,33.13 -12.06,59.54 -36.14,79.28 -24.08,19.08 -55.54,28.61 -94.35,28.61zm-720.17 -1016.35l0 478.39 213.98 0 0 131.82 -350.94 0 0 -610.21 136.96 0z"/>
 </g>
</svg>
